# xmcd
#
# Track frame offsets:
#	150
#	11102
#	33890
#	57187
#	74270
#	93457
#	126475
#	150242
#	176489
#	188859
#	204772
#	226154
#	243034
#	308139
#
# Disc length: 4321 seconds
#
# Revision: 1
# Processed by: cddbd v1.5.2PL0 Copyright (c) Steve Scherf et al.
# Submitted via: audiograbber 1.83.01
#
DISCID=a910df0e
DTITLE=Allman Brothers Band - 1969 and 1973
DYEAR=1969
DGENRE=
TTITLE0=Don´t want you no more
TTITLE1=It´s not my cross to bear
TTITLE2=Black hearted woman
TTITLE3=Trouble no more
TTITLE4=Every hungry woman
TTITLE5=Dreams
TTITLE6=Whipping post
TTITLE7=Can´t lose what you never had
TTITLE8=Just another lovesong
TTITLE9=Nevertheless
TTITLE10=Win, lose or draw
TTITLE11=Louisiana Lou and Three Card Monty John
TTITLE12=High falls
TTITLE13=Sweet Mama
EXTD=
EXTT0=
EXTT1=
EXTT2=
EXTT3=
EXTT4=
EXTT5=
EXTT6=
EXTT7=
EXTT8=
EXTT9=
EXTT10=
EXTT11=
EXTT12=
EXTT13=
PLAYORDER=
